<?xml version="1.0" encoding="utf-8"?>
<!-- Generator: Adobe Illustrator 25.3.1, SVG Export Plug-In . SVG Version: 6.00 Build 0)  -->
<svg version="1.1" id="Layer_1" xmlns="http://www.w3.org/2000/svg" xmlns:xlink="http://www.w3.org/1999/xlink" x="0px" y="0px"
	 viewBox="0 0 333.2 333.2" style="enable-background:new 0 0 333.2 333.2;" xml:space="preserve">
<g>
	<path d="M118.8,244.3c-34.1,0-62-27.9-62-62s27.9-62,62-62c16.6,0,32.2,6.6,43.6,18l20.4,20.4c5.2,5.7,4.7,14.7-0.9,19.9
		c-5.2,4.7-13.3,4.7-18.5,0L143,158.1c-13.7-12.8-35-12.3-47.8,1.4c-12.3,13.3-12.3,33.2,0,46.4c6.6,6.6,15.6,10.4,24.6,9.9h0.5
		c7.6,0,14.2,6.2,14.2,13.7c0,7.6-6.2,14.2-13.7,14.2h-1.9L118.8,244.3z"/>
	<path d="M197.9,244.3c-20.8,0-40.7-8.1-54.9-22.7l-24.6-24.2c-5.7-5.2-5.7-14.2-0.5-19.9c5.2-5.7,14.2-5.7,19.9-0.5l0.5,0.5
		l24.6,24.2c19.4,19.4,51.1,19.4,70.6,0c19.4-19.4,19.4-51.1,0-70.6c-14.2-14.2-36-18.5-54.5-10.9c-7.1,2.8-15.2-0.9-18-8.1
		c-2.8-7.1,0.5-14.7,7.1-18c39.8-16.6,85.2,2.4,101.8,42.1s-2.4,85.2-42.1,101.8C218.3,242.4,207.8,244.3,197.9,244.3L197.9,244.3z"
		/>
	<path d="M272.7,331.9H59.6c-32.7,0-58.7-26.5-58.7-58.7V60.1c0-32.7,26.5-58.7,58.7-58.7h213.1c32.7,0,58.7,26.5,58.7,58.7v213.1
		C331.9,305.4,305.4,331.9,272.7,331.9L272.7,331.9z M59.6,28.8c-17.1,0-30.8,13.7-30.8,30.8v213.1c0,17.1,13.7,30.8,30.8,30.8
		h213.1c17.1,0,30.8-13.7,30.8-30.8V59.6c0-17.1-13.7-30.8-30.8-30.8L59.6,28.8z"/>
</g>
</svg>
